<svg id="Camada_1" data-name="Camada 1" xmlns="http://www.w3.org/2000/svg" viewBox="0 0 833.25 1080"><defs><style>.cls-1{fill:#fff;}</style></defs><path class="cls-1" d="M956.63,663.37A415.33,415.33,0,0,0,656,791.62q-11.81,12.3-22.52,25.48c-2.42,3-4.81,6-7.11,9A414.52,414.52,0,0,0,540,1080a414.73,414.73,0,0,0-66.82-226.41c-1-1.55-2-3.1-3.06-4.64A412.75,412.75,0,0,0,442,811.54,417.88,417.88,0,0,0,333,719.9a407.14,407.14,0,0,0-67.91-31.8c-10.88-4-22-7.45-33.3-10.5a417,417,0,0,0-108.38-14.23c32.81,0,64.73-8.24,95.36-23C404.14,574.71,540,361.27,540,108.12,540,75.86,539.54,4.56,540,0c17.78,139.59,31.13,224.24,31.13,286.37,0,123.06-53.39,233.65-138.25,309.89-5.9,5.35-12,10.54-18.24,15.52q-12,7.9-24.52,14.94c19,6.23,27.59,13,45.21,21.83,24.89,12.47,46.09,28.3,67.81,45.33,10.71,8.37,21,17.28,30.88,26.65,2,1.93,4,3.89,6,5.86,8.16-9.08,16.78-17.79,25.73-26.07,6.15-5.77,12.47-11.3,19-16.65q10.6-8.73,21.8-16.74c21.63-15.52,56.82-29,81.3-40.21H582.93c-1.88,1.25-3.47,2.59-5.36,3.93q-11.16,8-21.8,16.74c-5.39,4.43-10.62,9-15.77,13.68-15.82-12.63-26.68-23.18-42.68-34.35a97.12,97.12,0,0,0-9.33-5.27,415.27,415.27,0,0,0,121.43-294v-.83c36.9,87.24,86.82,170.55,145.36,232.47,8.37,8.83,16.86,17.24,25.56,25.15,3.94,3.6,7.91,7.11,11.93,10.46a347.4,347.4,0,0,0,44,32C874.36,650,914.78,663.37,956.63,663.37Z" transform="translate(-123.37)"/></svg>